<svg height="800px" width="800px" version="1.1" id="Layer_1" xmlns="http://www.w3.org/2000/svg" xmlns:xlink="http://www.w3.org/1999/xlink"
	 viewBox="0 0 511.984 511.984" xml:space="preserve">

<path style="fill:#fff200;" d="M324.881,182.027l-5.203-9.312c-7.656-13.656-17.188-26.234-28.344-37.389
	c-32.232-32.249-75.09-49.999-120.683-49.999c-45.577,0-88.435,17.75-120.668,49.999C17.75,167.558,0,210.401,0,255.993
	c0,45.591,17.75,88.435,49.983,120.667s75.091,49.998,120.668,49.998c45.592,0,88.45-17.766,120.683-49.998
	c11.156-11.156,20.688-23.734,28.344-37.389l5.203-9.312l-132.356-73.966L324.881,182.027z"/>
<g style="opacity:0.2;">
	<path style="fill:#fff200;" d="M191.994,405.315c-45.592,0-88.435-17.748-120.684-49.982
		c-32.218-32.232-49.967-75.09-49.967-120.667c0-40.529,14.031-78.888,39.78-109.543c-3.844,3.219-7.562,6.609-11.14,10.203
		C17.75,167.558,0,210.401,0,255.993c0,45.591,17.75,88.435,49.983,120.667s75.091,49.998,120.668,49.998
		c45.592,0,88.45-17.766,120.683-49.998c3.578-3.562,6.984-7.281,10.219-11.141C270.883,391.286,232.524,405.315,191.994,405.315z"
		/>
</g>
<path style="fill:#434A54;" d="M196.4,185.745c-8.312,8.328-21.828,8.328-30.155,0c-8.343-8.328-8.343-21.843,0-30.171
	c8.328-8.328,21.843-8.328,30.155,0C204.744,163.903,204.744,177.417,196.4,185.745z"/>

</svg>